<svg xmlns="http://www.w3.org/2000/svg" viewBox="0 0 1200 675" role="img" aria-labelledby="title desc">
  <title id="title">Synthetic bicycle repair source sheet</title>
  <desc id="desc">A deterministic illustrated source fixture showing an upside-down bicycle, a small wrench, and a handlebar bell. No people are depicted.</desc>
  <defs>
    <linearGradient id="bg" x1="0" y1="0" x2="1" y2="1"><stop stop-color="#46564a"/><stop offset="1" stop-color="#202923"/></linearGradient>
    <pattern id="holes" width="30" height="30" patternUnits="userSpaceOnUse"><circle cx="15" cy="15" r="2" fill="#c4c7a5" opacity=".2"/></pattern>
    <filter id="grain"><feTurbulence baseFrequency=".72" numOctaves="4" seed="22"/><feColorMatrix values="1 0 0 0 0 0 1 0 0 0 0 0 1 0 0 0 0 0 .16 0"/></filter>
  </defs>
  <rect width="1200" height="675" fill="#d7cfb7"/>
  <rect x="24" y="24" width="1152" height="627" fill="url(#bg)"/>
  <rect x="24" y="24" width="1152" height="435" fill="url(#holes)"/>
  <rect x="24" y="478" width="1152" height="173" fill="#74472f"/>
  <path d="M24 489h1152" stroke="#ad7a4c" stroke-width="18"/>

  <g transform="translate(423 354) rotate(180)" fill="none" stroke="#cfceac" stroke-width="13">
    <circle cx="-187" cy="18" r="151"/><circle cx="192" cy="18" r="151"/>
    <path d="m-187 18 137-226 242 226h-379l93-162h180M-63-226H63M192 18 65-231h151"/>
    <path d="M74-230h91" stroke="#a84d31" stroke-width="18"/>
    <path d="M-16-207h-102" stroke="#b7c68e" stroke-width="18"/>
    <circle cx="0" cy="18" r="44" stroke="#a84d31" stroke-width="10"/>
  </g>

  <g transform="translate(696 105)">
    <circle r="46" fill="#c0c794" stroke="#26312b" stroke-width="9"/>
    <path d="M-27 0h54M0-27v54" stroke="#6f7b58" stroke-width="6"/>
    <path d="M40-8h70" stroke="#d0ceac" stroke-width="12"/>
  </g>

  <g transform="translate(924 412) rotate(-21)">
    <path d="M-17-84a48 48 0 0 0 0 62l-60 87a29 29 0 1 0 42 29L25 6a48 48 0 0 0 56-24L42-6 1-34l3-41-21-9Z" fill="#c7c9a6" stroke="#252e28" stroke-width="8"/>
    <circle cx="-57" cy="79" r="10" fill="#252e28"/>
  </g>

  <g transform="translate(1000 546)"><rect x="-100" y="-31" width="199" height="62" fill="#d5c48c" transform="rotate(4)"/><path d="M-76-12h130M-76 5H43M-76 22h99" stroke="#594a32" stroke-width="4" opacity=".75"/></g>
  <rect x="24" y="24" width="1152" height="627" filter="url(#grain)" opacity=".45"/>
  <path d="M42 43h1116v590H42Z" fill="none" stroke="#eee3c2" stroke-width="2" opacity=".5"/>
  <g transform="translate(44 603)"><rect width="660" height="30" fill="#e8d9b8"/><text x="13" y="20" fill="#2e2922" font-family="monospace" font-size="13" font-weight="700" letter-spacing="1.8">DETERMINISTIC SAMPLE ARCHIVE · NOT A REAL FAMILY RECORD</text></g>
</svg>
